<?xml version="1.0" standalone="no"?><!DOCTYPE svg PUBLIC "-//W3C//DTD SVG 1.1//EN" "http://www.w3.org/Graphics/SVG/1.1/DTD/svg11.dtd"><svg t="1632907327677" class="icon" viewBox="0 0 1024 1024" version="1.1" xmlns="http://www.w3.org/2000/svg" p-id="4742" xmlns:xlink="http://www.w3.org/1999/xlink" width="128" height="128"><defs><style type="text/css"></style></defs><path d="M725.333333 85.333333a128 128 0 0 1 128 128v213.333334a42.666667 42.666667 0 0 1 42.666667 42.666666v60.842667a128 128 0 0 1-108.544 126.506667l-90.112 13.866666a85.333333 85.333333 0 0 0-72.106667 91.434667l4.138667 49.109333a117.76 117.76 0 1 1-234.752 0l4.096-49.066666a85.333333 85.333333 0 0 0-72.064-91.477334l-90.112-13.866666A128 128 0 0 1 128 530.176V469.333333a42.666667 42.666667 0 0 1 42.666667-42.666666V213.333333a128 128 0 0 1 128-128h426.666666z m106.666667 405.333334h-640v39.509333c0 31.573333 23.04 58.453333 54.272 63.274667l90.112 13.866666a149.333333 149.333333 0 0 1 126.122667 160l-4.096 49.066667a53.76 53.76 0 1 0 107.178666 0l-4.096-49.066667a149.333333 149.333333 0 0 1 126.122667-160l90.112-13.866666a64 64 0 0 0 54.272-63.274667V490.666667z m-106.666667-341.333334H298.666667a64 64 0 0 0-63.701334 57.856L234.666667 213.333333v213.333334h554.666666V213.333333a64 64 0 0 0-57.856-63.701333L725.333333 149.333333z" fill="#000000" p-id="4743"></path></svg>