<?xml version="1.0" standalone="no"?><!DOCTYPE svg PUBLIC "-//W3C//DTD SVG 1.1//EN" "http://www.w3.org/Graphics/SVG/1.1/DTD/svg11.dtd"><svg t="1632909621272" class="icon" viewBox="0 0 1024 1024" version="1.1" xmlns="http://www.w3.org/2000/svg" p-id="4014" xmlns:xlink="http://www.w3.org/1999/xlink" width="128" height="128"><defs><style type="text/css"></style></defs><path d="M512 85.333333c235.648 0 426.666667 191.018667 426.666667 426.666667 0 49.962667-44.458667 85.333333-94.421334 85.333333H768a170.666667 170.666667 0 0 0-170.666667 170.666667v76.245333C597.333333 894.208 561.962667 938.666667 512 938.666667 276.352 938.666667 85.333333 747.648 85.333333 512S276.352 85.333333 512 85.333333z m0 64a362.666667 362.666667 0 0 0 0 725.333334c4.736 0 9.002667-1.706667 13.098667-6.442667a36.992 36.992 0 0 0 8.234666-23.978667V768a234.666667 234.666667 0 0 1 234.666667-234.666667h76.245333c10.197333 0 18.730667-3.669333 23.978667-8.234666A16.512 16.512 0 0 0 874.666667 512 362.666667 362.666667 0 0 0 512 149.333333z" fill="#000000" p-id="4015"></path><path d="M576 298.666667a64 64 0 1 0-128 0 64 64 0 0 0 128 0zM768 405.333333a64 64 0 1 0-128 0 64 64 0 0 0 128 0zM384 426.666667a64 64 0 1 0-128 0 64 64 0 0 0 128 0zM426.666667 661.333333a64 64 0 1 0-128 0 64 64 0 0 0 128 0z" fill="#000000" p-id="4016"></path></svg>