<?xml version="1.0" standalone="no"?><!DOCTYPE svg PUBLIC "-//W3C//DTD SVG 1.1//EN" "http://www.w3.org/Graphics/SVG/1.1/DTD/svg11.dtd"><svg t="1632907278695" class="icon" viewBox="0 0 1024 1024" version="1.1" xmlns="http://www.w3.org/2000/svg" p-id="4597" xmlns:xlink="http://www.w3.org/1999/xlink" width="128" height="128"><defs><style type="text/css"></style></defs><path d="M650.666667 298.666667c0 17.664 14.336 32 32 32h136.106666l-256.554666 256.554666a10.666667 10.666667 0 0 1-15.104 0l-110.336-110.336a74.666667 74.666667 0 0 0-105.557334 0L105.386667 702.72a32 32 0 1 0 45.226666 45.226667l225.834667-225.834667a10.666667 10.666667 0 0 1 15.104 0l110.336 110.336a74.666667 74.666667 0 0 0 105.557333 0l256.554667-256.512V512a32 32 0 0 0 64 0V298.666667a32 32 0 0 0-32-32h-213.333333a32 32 0 0 0-32 32z" fill="#000000" p-id="4598"></path></svg>