<?xml version="1.0" standalone="no"?><!DOCTYPE svg PUBLIC "-//W3C//DTD SVG 1.1//EN" "http://www.w3.org/Graphics/SVG/1.1/DTD/svg11.dtd"><svg t="1632908959835" class="icon" viewBox="0 0 1024 1024" version="1.1" xmlns="http://www.w3.org/2000/svg" p-id="5034" xmlns:xlink="http://www.w3.org/1999/xlink" width="128" height="128"><defs><style type="text/css"></style></defs><path d="M512.085333 181.333333a32 32 0 0 0-32 32v370.773334l-137.386666-137.386667a32 32 0 0 0-45.226667 45.226667l161.792 161.834666a74.666667 74.666667 0 0 0 105.6 0l161.749333-161.706666a32 32 0 0 0-45.226666-45.269334l-137.301334 137.258667V213.333333a32 32 0 0 0-32-32z" fill="#000000" p-id="5035"></path><path d="M202.666667 640v85.333333c0 29.44 23.893333 53.333333 53.333333 53.333334h512c29.44 0 53.333333-23.893333 53.333333-53.333334v-85.333333a32 32 0 0 1 64 0v85.333333A117.333333 117.333333 0 0 1 768 842.666667H256A117.333333 117.333333 0 0 1 138.666667 725.333333v-85.333333a32 32 0 1 1 64 0z" fill="#000000" p-id="5036"></path></svg>