<?xml version="1.0" standalone="no"?><!DOCTYPE svg PUBLIC "-//W3C//DTD SVG 1.1//EN" "http://www.w3.org/Graphics/SVG/1.1/DTD/svg11.dtd"><svg t="1632907156598" class="icon" viewBox="0 0 1024 1024" version="1.1" xmlns="http://www.w3.org/2000/svg" p-id="4307" xmlns:xlink="http://www.w3.org/1999/xlink" width="128" height="128"><defs><style type="text/css"></style></defs><path d="M568.533333 389.76c107.904 28.928 187.690667 107.008 224 204.288l-82.901333-22.442667a32 32 0 0 0-16.768 61.738667l135.594667 36.778667c1.28 0.426667 2.602667 0.768 3.968 1.066666l17.621333 4.778667a32 32 0 0 0 39.296-22.613333l42.154667-157.312a32 32 0 0 0-61.824-16.554667l-21.632 80.810667c-45.056-110.336-138.112-198.912-262.954667-232.362667A398.464 398.464 0 0 0 97.066667 609.706667a32 32 0 1 0 61.866666 16.554666 334.464 334.464 0 0 1 409.6-236.501333z" fill="#000000" p-id="4308"></path></svg>