<?xml version="1.0" standalone="no"?><!DOCTYPE svg PUBLIC "-//W3C//DTD SVG 1.1//EN" "http://www.w3.org/Graphics/SVG/1.1/DTD/svg11.dtd"><svg t="1632907220225" class="icon" viewBox="0 0 1024 1024" version="1.1" xmlns="http://www.w3.org/2000/svg" p-id="4452" xmlns:xlink="http://www.w3.org/1999/xlink" width="128" height="128"><defs><style type="text/css"></style></defs><path d="M460.032 389.76c-107.861333 28.928-187.648 107.008-224 204.288l82.944-22.442667a32 32 0 0 1 16.768 61.738667l-135.637333 36.778667a31.872 31.872 0 0 1-3.925334 1.066666l-17.664 4.778667a32 32 0 0 1-39.253333-22.613333l-42.197333-157.312a32 32 0 0 1 61.866666-16.554667l21.632 80.810667c45.056-110.336 138.112-198.912 262.912-232.362667a398.464 398.464 0 0 1 488.021334 281.770667 32 32 0 0 1-61.824 16.554666 334.464 334.464 0 0 0-409.6-236.501333z" fill="#000000" p-id="4453"></path></svg>