<?xml version="1.0" standalone="no"?><!DOCTYPE svg PUBLIC "-//W3C//DTD SVG 1.1//EN" "http://www.w3.org/Graphics/SVG/1.1/DTD/svg11.dtd"><svg t="1632909254180" class="icon" viewBox="0 0 1024 1024" version="1.1" xmlns="http://www.w3.org/2000/svg" p-id="5180" xmlns:xlink="http://www.w3.org/1999/xlink" width="128" height="128"><defs><style type="text/css"></style></defs><path d="M676.138667 85.333333l2.346666 0.128a128 128 0 0 1 84.352 37.376L901.12 261.12A128 128 0 0 1 938.666667 351.701333V810.666667a128 128 0 0 1-128 128H213.333333a128 128 0 0 1-128-128V213.333333a128 128 0 0 1 128-128h462.805334zM298.666667 149.333333H213.333333A64 64 0 0 0 149.333333 213.333333v597.333334A64 64 0 0 0 213.333333 874.666667h42.666667V682.666667a85.333333 85.333333 0 0 1 85.333333-85.333334h341.333334a85.333333 85.333333 0 0 1 85.333333 85.333334v192h42.666667a64 64 0 0 0 64-64V351.701333a64 64 0 0 0-18.773334-45.269333L725.333333 175.872V298.666667a85.333333 85.333333 0 0 1-85.333333 85.333333H384a85.333333 85.333333 0 0 1-85.333333-85.333333V149.333333z m384 512H341.333333a21.333333 21.333333 0 0 0-20.992 17.493334L320 682.666667v192h384V682.666667a21.333333 21.333333 0 0 0-17.493333-20.992L682.666667 661.333333z m-21.333334-512h-298.666666V298.666667a21.333333 21.333333 0 0 0 21.333333 21.333333h256a21.333333 21.333333 0 0 0 21.333333-21.333333V149.333333z" fill="#000000" p-id="5181"></path></svg>