<?xml version="1.0" standalone="no"?><!DOCTYPE svg PUBLIC "-//W3C//DTD SVG 1.1//EN" "http://www.w3.org/Graphics/SVG/1.1/DTD/svg11.dtd"><svg t="1632909485642" class="icon" viewBox="0 0 1024 1024" version="1.1" xmlns="http://www.w3.org/2000/svg" p-id="5327" xmlns:xlink="http://www.w3.org/1999/xlink" width="128" height="128"><defs><style type="text/css"></style></defs><path d="M725.333333 85.333333a170.666667 170.666667 0 1 1-121.6 290.432l-5.674666-6.058666-139.136 83.456a170.752 170.752 0 0 1 3.669333 106.496l-3.669333 11.178666 139.093333 83.456 3.84-4.138666a170.666667 170.666667 0 1 1-37.461333 60.842666l0.682666-1.834666-139.093333-83.456a170.666667 170.666667 0 1 1-6.4-234.24l6.4 6.826666 139.093333-83.456-0.64-1.834666A170.666667 170.666667 0 0 1 725.333333 85.333333z m0 576a106.666667 106.666667 0 1 0 0 213.333334 106.666667 106.666667 0 0 0 0-213.333334z m-426.666666-256a106.666667 106.666667 0 1 0 0 213.333334 106.666667 106.666667 0 0 0 0-213.333334z m426.666666-256a106.666667 106.666667 0 1 0 0 213.333334 106.666667 106.666667 0 0 0 0-213.333334z" fill="#000000" p-id="5328"></path></svg>