<?xml version="1.0" standalone="no"?><!DOCTYPE svg PUBLIC "-//W3C//DTD SVG 1.1//EN" "http://www.w3.org/Graphics/SVG/1.1/DTD/svg11.dtd"><svg t="1632909677960" class="icon" viewBox="0 0 1024 1024" version="1.1" xmlns="http://www.w3.org/2000/svg" p-id="4456" xmlns:xlink="http://www.w3.org/1999/xlink" width="128" height="128"><defs><style type="text/css"></style></defs><path d="M458.666667 469.333333v213.333334a32 32 0 1 1-64 0v-213.333334a32 32 0 1 1 64 0zM629.333333 469.333333v213.333334a32 32 0 1 1-64 0v-213.333334a32 32 0 1 1 64 0z" fill="#000000" p-id="4457"></path><path d="M597.333333 96a117.333333 117.333333 0 0 1 117.12 110.165333L714.666667 213.333333v10.666667H896a32 32 0 0 1 4.352 63.701333L896 288h-53.333333V810.666667a117.333333 117.333333 0 0 1-110.165334 117.12L725.333333 928H298.666667a117.333333 117.333333 0 0 1-117.12-110.165333L181.333333 810.666667V288H128a32 32 0 0 1-4.352-63.701333L128 224h181.333333V213.333333a117.333333 117.333333 0 0 1 110.165334-117.12L426.666667 96h170.666666z m181.333334 192H245.333333V810.666667c0 29.44 23.893333 53.333333 53.333334 53.333333h426.666666c29.44 0 53.333333-23.893333 53.333334-53.333333V288z m-181.333334-128h-170.666666c-29.44 0-53.333333 23.893333-53.333334 53.333333v10.666667h277.333334V213.333333c0-29.44-23.893333-53.333333-53.333334-53.333333z" fill="#000000" p-id="4458"></path></svg>