<?xml version="1.0" standalone="no"?><!DOCTYPE svg PUBLIC "-//W3C//DTD SVG 1.1//EN" "http://www.w3.org/Graphics/SVG/1.1/DTD/svg11.dtd"><svg t="1632909641801" class="icon" viewBox="0 0 1024 1024" version="1.1" xmlns="http://www.w3.org/2000/svg" p-id="4162" xmlns:xlink="http://www.w3.org/1999/xlink" width="128" height="128"><defs><style type="text/css"></style></defs><path d="M554.666667 170.666667a85.333333 85.333333 0 0 1 85.333333 85.333333h139.434667a85.333333 85.333333 0 1 1 0 85.333333h-73.941334a287.274667 287.274667 0 0 1 94.506667 213.333334v42.666666H810.666667a85.333333 85.333333 0 0 1 85.333333 85.333334v85.333333a85.333333 85.333333 0 0 1-85.333333 85.333333h-85.333334a85.333333 85.333333 0 0 1-85.333333-85.333333v-85.333333a85.333333 85.333333 0 0 1 85.333333-85.333334h10.666667v-42.666666a223.786667 223.786667 0 0 0-100.266667-186.709334A85.333333 85.333333 0 0 1 554.666667 426.666667h-85.333334a85.333333 85.333333 0 0 1-78.336-51.413334L388.266667 367.957333A223.786667 223.786667 0 0 0 288 554.666667v42.666666H298.666667a85.333333 85.333333 0 0 1 85.333333 85.333334v85.333333a85.333333 85.333333 0 0 1-85.333333 85.333333H213.333333a85.333333 85.333333 0 0 1-85.333333-85.333333v-85.333333a85.333333 85.333333 0 0 1 85.333333-85.333334h10.666667v-42.666666c0-90.453333 41.728-171.221333 106.965333-224H249.813333a85.333333 85.333333 0 1 1 0-64H384V256a85.333333 85.333333 0 0 1 85.333333-85.333333h85.333334zM298.666667 661.333333H213.333333a21.333333 21.333333 0 0 0-21.333333 21.333334v85.333333a21.333333 21.333333 0 0 0 21.333333 21.333333h85.333334a21.333333 21.333333 0 0 0 21.333333-21.333333v-85.333333a21.333333 21.333333 0 0 0-21.333333-21.333334z m512 0h-85.333334a21.333333 21.333333 0 0 0-20.992 17.493334L704 682.666667v85.333333a21.333333 21.333333 0 0 0 17.493333 20.992l3.84 0.341333h85.333334a21.333333 21.333333 0 0 0 20.992-17.493333L832 768v-85.333333a21.333333 21.333333 0 0 0-17.493333-20.992L810.666667 661.333333z m-256-426.666666h-85.333334a21.333333 21.333333 0 0 0-20.992 17.493333L448 256v85.333333a21.333333 21.333333 0 0 0 17.493333 20.992L469.333333 362.666667h85.333334a21.333333 21.333333 0 0 0 20.992-17.493334L576 341.333333V256a21.333333 21.333333 0 0 0-17.493333-20.992L554.666667 234.666667z m-384 42.666666a21.333333 21.333333 0 1 0 0 42.666667 21.333333 21.333333 0 0 0 0-42.666667z m682.666666 0a21.333333 21.333333 0 1 0 0 42.666667 21.333333 21.333333 0 0 0 0-42.666667z" fill="#000000" p-id="4163"></path></svg>